<?xml version="1.0" encoding="UTF-8" ?>
<svg version="1.1" width="240" height="32" xmlns="http://www.w3.org/2000/svg">
<rect x="6" y="2" width="2" height="2" fill="#000000" />
<rect x="8" y="2" width="2" height="2" fill="#000000" />
<rect x="10" y="2" width="2" height="2" fill="#000000" />
<rect x="12" y="2" width="2" height="2" fill="#000000" />
<rect x="14" y="2" width="2" height="2" fill="#000000" />
<rect x="16" y="2" width="2" height="2" fill="#000000" />
<rect x="18" y="2" width="2" height="2" fill="#000000" />
<rect x="20" y="2" width="2" height="2" fill="#000000" />
<rect x="22" y="2" width="2" height="2" fill="#000000" />
<rect x="24" y="2" width="2" height="2" fill="#000000" />
<rect x="26" y="2" width="2" height="2" fill="#000000" />
<rect x="28" y="2" width="2" height="2" fill="#000000" />
<rect x="30" y="2" width="2" height="2" fill="#000000" />
<rect x="32" y="2" width="2" height="2" fill="#000000" />
<rect x="6" y="4" width="2" height="2" fill="#000000" />
<rect x="8" y="4" width="2" height="2" fill="#B14863" />
<rect x="10" y="4" width="2" height="2" fill="#B14863" />
<rect x="12" y="4" width="2" height="2" fill="#B14863" />
<rect x="14" y="4" width="2" height="2" fill="#B14863" />
<rect x="16" y="4" width="2" height="2" fill="#B14863" />
<rect x="18" y="4" width="2" height="2" fill="#B14863" />
<rect x="20" y="4" width="2" height="2" fill="#B14863" />
<rect x="22" y="4" width="2" height="2" fill="#B14863" />
<rect x="24" y="4" width="2" height="2" fill="#B14863" />
<rect x="26" y="4" width="2" height="2" fill="#B14863" />
<rect x="28" y="4" width="2" height="2" fill="#B14863" />
<rect x="30" y="4" width="2" height="2" fill="#B14863" />
<rect x="32" y="4" width="2" height="2" fill="#000000" />
<rect x="34" y="4" width="2" height="2" fill="#000000" />
<rect x="36" y="4" width="2" height="2" fill="#000000" />
<rect x="38" y="4" width="2" height="2" fill="#000000" />
<rect x="40" y="4" width="2" height="2" fill="#000000" />
<rect x="42" y="4" width="2" height="2" fill="#000000" />
<rect x="52" y="4" width="2" height="2" fill="#000000" />
<rect x="66" y="4" width="2" height="2" fill="#000000" />
<rect x="80" y="4" width="2" height="2" fill="#000000" />
<rect x="136" y="4" width="2" height="2" fill="#000000" />
<rect x="6" y="6" width="2" height="2" fill="#000000" />
<rect x="8" y="6" width="2" height="2" fill="#B14863" />
<rect x="10" y="6" width="2" height="2" fill="#B14863" />
<rect x="12" y="6" width="2" height="2" fill="#B14863" />
<rect x="14" y="6" width="2" height="2" fill="#000000" />
<rect x="16" y="6" width="2" height="2" fill="#000000" />
<rect x="18" y="6" width="2" height="2" fill="#000000" />
<rect x="20" y="6" width="2" height="2" fill="#000000" />
<rect x="22" y="6" width="2" height="2" fill="#000000" />
<rect x="24" y="6" width="2" height="2" fill="#000000" />
<rect x="26" y="6" width="2" height="2" fill="#B14863" />
<rect x="28" y="6" width="2" height="2" fill="#B14863" />
<rect x="30" y="6" width="2" height="2" fill="#B14863" />
<rect x="32" y="6" width="2" height="2" fill="#000000" />
<rect x="34" y="6" width="2" height="2" fill="#509450" />
<rect x="36" y="6" width="2" height="2" fill="#509450" />
<rect x="38" y="6" width="2" height="2" fill="#509450" />
<rect x="40" y="6" width="2" height="2" fill="#509450" />
<rect x="42" y="6" width="2" height="2" fill="#000000" />
<rect x="52" y="6" width="2" height="2" fill="#000000" />
<rect x="66" y="6" width="2" height="2" fill="#000000" />
<rect x="80" y="6" width="2" height="2" fill="#000000" />
<rect x="136" y="6" width="2" height="2" fill="#000000" />
<rect x="6" y="8" width="2" height="2" fill="#000000" />
<rect x="8" y="8" width="2" height="2" fill="#B14863" />
<rect x="10" y="8" width="2" height="2" fill="#B14863" />
<rect x="12" y="8" width="2" height="2" fill="#B14863" />
<rect x="14" y="8" width="2" height="2" fill="#B14863" />
<rect x="16" y="8" width="2" height="2" fill="#000000" />
<rect x="22" y="8" width="2" height="2" fill="#000000" />
<rect x="24" y="8" width="2" height="2" fill="#B14863" />
<rect x="26" y="8" width="2" height="2" fill="#B14863" />
<rect x="28" y="8" width="2" height="2" fill="#B14863" />
<rect x="30" y="8" width="2" height="2" fill="#B14863" />
<rect x="32" y="8" width="2" height="2" fill="#000000" />
<rect x="34" y="8" width="2" height="2" fill="#509450" />
<rect x="36" y="8" width="2" height="2" fill="#000000" />
<rect x="38" y="8" width="2" height="2" fill="#509450" />
<rect x="40" y="8" width="2" height="2" fill="#509450" />
<rect x="42" y="8" width="2" height="2" fill="#000000" />
<rect x="54" y="8" width="2" height="2" fill="#000000" />
<rect x="64" y="8" width="2" height="2" fill="#000000" />
<rect x="68" y="8" width="2" height="2" fill="#000000" />
<rect x="78" y="8" width="2" height="2" fill="#000000" />
<rect x="136" y="8" width="2" height="2" fill="#000000" />
<rect x="6" y="10" width="2" height="2" fill="#000000" />
<rect x="8" y="10" width="2" height="2" fill="#B14863" />
<rect x="10" y="10" width="2" height="2" fill="#000000" />
<rect x="12" y="10" width="2" height="2" fill="#B14863" />
<rect x="14" y="10" width="2" height="2" fill="#B14863" />
<rect x="16" y="10" width="2" height="2" fill="#B14863" />
<rect x="18" y="10" width="2" height="2" fill="#000000" />
<rect x="20" y="10" width="2" height="2" fill="#000000" />
<rect x="22" y="10" width="2" height="2" fill="#B14863" />
<rect x="24" y="10" width="2" height="2" fill="#B14863" />
<rect x="26" y="10" width="2" height="2" fill="#B14863" />
<rect x="28" y="10" width="2" height="2" fill="#000000" />
<rect x="30" y="10" width="2" height="2" fill="#B14863" />
<rect x="32" y="10" width="2" height="2" fill="#000000" />
<rect x="34" y="10" width="2" height="2" fill="#509450" />
<rect x="36" y="10" width="2" height="2" fill="#509450" />
<rect x="38" y="10" width="2" height="2" fill="#000000" />
<rect x="40" y="10" width="2" height="2" fill="#509450" />
<rect x="42" y="10" width="2" height="2" fill="#000000" />
<rect x="54" y="10" width="2" height="2" fill="#000000" />
<rect x="64" y="10" width="2" height="2" fill="#000000" />
<rect x="68" y="10" width="2" height="2" fill="#000000" />
<rect x="78" y="10" width="2" height="2" fill="#000000" />
<rect x="86" y="10" width="2" height="2" fill="#000000" />
<rect x="88" y="10" width="2" height="2" fill="#000000" />
<rect x="90" y="10" width="2" height="2" fill="#000000" />
<rect x="92" y="10" width="2" height="2" fill="#000000" />
<rect x="102" y="10" width="2" height="2" fill="#000000" />
<rect x="106" y="10" width="2" height="2" fill="#000000" />
<rect x="108" y="10" width="2" height="2" fill="#000000" />
<rect x="110" y="10" width="2" height="2" fill="#000000" />
<rect x="120" y="10" width="2" height="2" fill="#000000" />
<rect x="122" y="10" width="2" height="2" fill="#000000" />
<rect x="124" y="10" width="2" height="2" fill="#000000" />
<rect x="136" y="10" width="2" height="2" fill="#000000" />
<rect x="140" y="10" width="2" height="2" fill="#000000" />
<rect x="142" y="10" width="2" height="2" fill="#000000" />
<rect x="144" y="10" width="2" height="2" fill="#000000" />
<rect x="146" y="10" width="2" height="2" fill="#000000" />
<rect x="160" y="10" width="2" height="2" fill="#000000" />
<rect x="162" y="10" width="2" height="2" fill="#000000" />
<rect x="164" y="10" width="2" height="2" fill="#000000" />
<rect x="166" y="10" width="2" height="2" fill="#000000" />
<rect x="176" y="10" width="2" height="2" fill="#000000" />
<rect x="190" y="10" width="2" height="2" fill="#000000" />
<rect x="198" y="10" width="2" height="2" fill="#000000" />
<rect x="200" y="10" width="2" height="2" fill="#000000" />
<rect x="202" y="10" width="2" height="2" fill="#000000" />
<rect x="204" y="10" width="2" height="2" fill="#000000" />
<rect x="206" y="10" width="2" height="2" fill="#000000" />
<rect x="216" y="10" width="2" height="2" fill="#000000" />
<rect x="218" y="10" width="2" height="2" fill="#000000" />
<rect x="220" y="10" width="2" height="2" fill="#000000" />
<rect x="6" y="12" width="2" height="2" fill="#000000" />
<rect x="8" y="12" width="2" height="2" fill="#B14863" />
<rect x="10" y="12" width="2" height="2" fill="#000000" />
<rect x="12" y="12" width="2" height="2" fill="#000000" />
<rect x="14" y="12" width="2" height="2" fill="#B14863" />
<rect x="16" y="12" width="2" height="2" fill="#B14863" />
<rect x="18" y="12" width="2" height="2" fill="#B14863" />
<rect x="20" y="12" width="2" height="2" fill="#B14863" />
<rect x="22" y="12" width="2" height="2" fill="#B14863" />
<rect x="24" y="12" width="2" height="2" fill="#B14863" />
<rect x="26" y="12" width="2" height="2" fill="#000000" />
<rect x="28" y="12" width="2" height="2" fill="#000000" />
<rect x="30" y="12" width="2" height="2" fill="#B14863" />
<rect x="32" y="12" width="2" height="2" fill="#000000" />
<rect x="34" y="12" width="2" height="2" fill="#509450" />
<rect x="36" y="12" width="2" height="2" fill="#509450" />
<rect x="38" y="12" width="2" height="2" fill="#509450" />
<rect x="40" y="12" width="2" height="2" fill="#509450" />
<rect x="42" y="12" width="2" height="2" fill="#000000" />
<rect x="54" y="12" width="2" height="2" fill="#000000" />
<rect x="64" y="12" width="2" height="2" fill="#000000" />
<rect x="68" y="12" width="2" height="2" fill="#000000" />
<rect x="78" y="12" width="2" height="2" fill="#000000" />
<rect x="84" y="12" width="2" height="2" fill="#000000" />
<rect x="92" y="12" width="2" height="2" fill="#000000" />
<rect x="94" y="12" width="2" height="2" fill="#000000" />
<rect x="102" y="12" width="2" height="2" fill="#000000" />
<rect x="104" y="12" width="2" height="2" fill="#000000" />
<rect x="118" y="12" width="2" height="2" fill="#000000" />
<rect x="126" y="12" width="2" height="2" fill="#000000" />
<rect x="136" y="12" width="2" height="2" fill="#000000" />
<rect x="138" y="12" width="2" height="2" fill="#000000" />
<rect x="148" y="12" width="2" height="2" fill="#000000" />
<rect x="158" y="12" width="2" height="2" fill="#000000" />
<rect x="168" y="12" width="2" height="2" fill="#000000" />
<rect x="176" y="12" width="2" height="2" fill="#000000" />
<rect x="190" y="12" width="2" height="2" fill="#000000" />
<rect x="196" y="12" width="2" height="2" fill="#000000" />
<rect x="208" y="12" width="2" height="2" fill="#000000" />
<rect x="214" y="12" width="2" height="2" fill="#000000" />
<rect x="222" y="12" width="2" height="2" fill="#000000" />
<rect x="6" y="14" width="2" height="2" fill="#000000" />
<rect x="8" y="14" width="2" height="2" fill="#B14863" />
<rect x="10" y="14" width="2" height="2" fill="#000000" />
<rect x="14" y="14" width="2" height="2" fill="#000000" />
<rect x="16" y="14" width="2" height="2" fill="#B14863" />
<rect x="18" y="14" width="2" height="2" fill="#B14863" />
<rect x="20" y="14" width="2" height="2" fill="#B14863" />
<rect x="22" y="14" width="2" height="2" fill="#B14863" />
<rect x="24" y="14" width="2" height="2" fill="#000000" />
<rect x="28" y="14" width="2" height="2" fill="#000000" />
<rect x="30" y="14" width="2" height="2" fill="#B14863" />
<rect x="32" y="14" width="2" height="2" fill="#000000" />
<rect x="34" y="14" width="2" height="2" fill="#000000" />
<rect x="36" y="14" width="2" height="2" fill="#000000" />
<rect x="38" y="14" width="2" height="2" fill="#000000" />
<rect x="40" y="14" width="2" height="2" fill="#000000" />
<rect x="42" y="14" width="2" height="2" fill="#000000" />
<rect x="44" y="14" width="2" height="2" fill="#000000" />
<rect x="46" y="14" width="2" height="2" fill="#000000" />
<rect x="56" y="14" width="2" height="2" fill="#000000" />
<rect x="64" y="14" width="2" height="2" fill="#000000" />
<rect x="68" y="14" width="2" height="2" fill="#000000" />
<rect x="76" y="14" width="2" height="2" fill="#000000" />
<rect x="94" y="14" width="2" height="2" fill="#000000" />
<rect x="102" y="14" width="2" height="2" fill="#000000" />
<rect x="116" y="14" width="2" height="2" fill="#000000" />
<rect x="128" y="14" width="2" height="2" fill="#000000" />
<rect x="136" y="14" width="2" height="2" fill="#000000" />
<rect x="150" y="14" width="2" height="2" fill="#000000" />
<rect x="156" y="14" width="2" height="2" fill="#000000" />
<rect x="170" y="14" width="2" height="2" fill="#000000" />
<rect x="176" y="14" width="2" height="2" fill="#000000" />
<rect x="190" y="14" width="2" height="2" fill="#000000" />
<rect x="196" y="14" width="2" height="2" fill="#000000" />
<rect x="212" y="14" width="2" height="2" fill="#000000" />
<rect x="224" y="14" width="2" height="2" fill="#000000" />
<rect x="6" y="16" width="2" height="2" fill="#000000" />
<rect x="8" y="16" width="2" height="2" fill="#B14863" />
<rect x="10" y="16" width="2" height="2" fill="#000000" />
<rect x="14" y="16" width="2" height="2" fill="#000000" />
<rect x="16" y="16" width="2" height="2" fill="#B14863" />
<rect x="18" y="16" width="2" height="2" fill="#B14863" />
<rect x="20" y="16" width="2" height="2" fill="#B14863" />
<rect x="22" y="16" width="2" height="2" fill="#B14863" />
<rect x="24" y="16" width="2" height="2" fill="#000000" />
<rect x="28" y="16" width="2" height="2" fill="#000000" />
<rect x="30" y="16" width="2" height="2" fill="#B14863" />
<rect x="32" y="16" width="2" height="2" fill="#000000" />
<rect x="34" y="16" width="2" height="2" fill="#8385CF" />
<rect x="36" y="16" width="2" height="2" fill="#8385CF" />
<rect x="38" y="16" width="2" height="2" fill="#8385CF" />
<rect x="40" y="16" width="2" height="2" fill="#8385CF" />
<rect x="42" y="16" width="2" height="2" fill="#8385CF" />
<rect x="44" y="16" width="2" height="2" fill="#8385CF" />
<rect x="46" y="16" width="2" height="2" fill="#000000" />
<rect x="56" y="16" width="2" height="2" fill="#000000" />
<rect x="62" y="16" width="2" height="2" fill="#000000" />
<rect x="70" y="16" width="2" height="2" fill="#000000" />
<rect x="76" y="16" width="2" height="2" fill="#000000" />
<rect x="84" y="16" width="2" height="2" fill="#000000" />
<rect x="86" y="16" width="2" height="2" fill="#000000" />
<rect x="88" y="16" width="2" height="2" fill="#000000" />
<rect x="90" y="16" width="2" height="2" fill="#000000" />
<rect x="92" y="16" width="2" height="2" fill="#000000" />
<rect x="94" y="16" width="2" height="2" fill="#000000" />
<rect x="102" y="16" width="2" height="2" fill="#000000" />
<rect x="116" y="16" width="2" height="2" fill="#000000" />
<rect x="128" y="16" width="2" height="2" fill="#000000" />
<rect x="136" y="16" width="2" height="2" fill="#000000" />
<rect x="150" y="16" width="2" height="2" fill="#000000" />
<rect x="156" y="16" width="2" height="2" fill="#000000" />
<rect x="170" y="16" width="2" height="2" fill="#000000" />
<rect x="176" y="16" width="2" height="2" fill="#000000" />
<rect x="190" y="16" width="2" height="2" fill="#000000" />
<rect x="196" y="16" width="2" height="2" fill="#000000" />
<rect x="198" y="16" width="2" height="2" fill="#000000" />
<rect x="212" y="16" width="2" height="2" fill="#000000" />
<rect x="224" y="16" width="2" height="2" fill="#000000" />
<rect x="6" y="18" width="2" height="2" fill="#000000" />
<rect x="8" y="18" width="2" height="2" fill="#B14863" />
<rect x="10" y="18" width="2" height="2" fill="#000000" />
<rect x="12" y="18" width="2" height="2" fill="#000000" />
<rect x="14" y="18" width="2" height="2" fill="#B14863" />
<rect x="16" y="18" width="2" height="2" fill="#B14863" />
<rect x="18" y="18" width="2" height="2" fill="#B14863" />
<rect x="20" y="18" width="2" height="2" fill="#B14863" />
<rect x="22" y="18" width="2" height="2" fill="#B14863" />
<rect x="24" y="18" width="2" height="2" fill="#B14863" />
<rect x="26" y="18" width="2" height="2" fill="#000000" />
<rect x="28" y="18" width="2" height="2" fill="#000000" />
<rect x="30" y="18" width="2" height="2" fill="#B14863" />
<rect x="32" y="18" width="2" height="2" fill="#000000" />
<rect x="34" y="18" width="2" height="2" fill="#8385CF" />
<rect x="36" y="18" width="2" height="2" fill="#8385CF" />
<rect x="38" y="18" width="2" height="2" fill="#000000" />
<rect x="40" y="18" width="2" height="2" fill="#000000" />
<rect x="42" y="18" width="2" height="2" fill="#8385CF" />
<rect x="44" y="18" width="2" height="2" fill="#8385CF" />
<rect x="46" y="18" width="2" height="2" fill="#000000" />
<rect x="56" y="18" width="2" height="2" fill="#000000" />
<rect x="62" y="18" width="2" height="2" fill="#000000" />
<rect x="70" y="18" width="2" height="2" fill="#000000" />
<rect x="76" y="18" width="2" height="2" fill="#000000" />
<rect x="82" y="18" width="2" height="2" fill="#000000" />
<rect x="84" y="18" width="2" height="2" fill="#000000" />
<rect x="94" y="18" width="2" height="2" fill="#000000" />
<rect x="102" y="18" width="2" height="2" fill="#000000" />
<rect x="116" y="18" width="2" height="2" fill="#000000" />
<rect x="118" y="18" width="2" height="2" fill="#000000" />
<rect x="120" y="18" width="2" height="2" fill="#000000" />
<rect x="122" y="18" width="2" height="2" fill="#000000" />
<rect x="124" y="18" width="2" height="2" fill="#000000" />
<rect x="126" y="18" width="2" height="2" fill="#000000" />
<rect x="128" y="18" width="2" height="2" fill="#000000" />
<rect x="136" y="18" width="2" height="2" fill="#000000" />
<rect x="150" y="18" width="2" height="2" fill="#000000" />
<rect x="156" y="18" width="2" height="2" fill="#000000" />
<rect x="170" y="18" width="2" height="2" fill="#000000" />
<rect x="176" y="18" width="2" height="2" fill="#000000" />
<rect x="190" y="18" width="2" height="2" fill="#000000" />
<rect x="198" y="18" width="2" height="2" fill="#000000" />
<rect x="200" y="18" width="2" height="2" fill="#000000" />
<rect x="202" y="18" width="2" height="2" fill="#000000" />
<rect x="204" y="18" width="2" height="2" fill="#000000" />
<rect x="212" y="18" width="2" height="2" fill="#000000" />
<rect x="214" y="18" width="2" height="2" fill="#000000" />
<rect x="216" y="18" width="2" height="2" fill="#000000" />
<rect x="218" y="18" width="2" height="2" fill="#000000" />
<rect x="220" y="18" width="2" height="2" fill="#000000" />
<rect x="222" y="18" width="2" height="2" fill="#000000" />
<rect x="224" y="18" width="2" height="2" fill="#000000" />
<rect x="6" y="20" width="2" height="2" fill="#000000" />
<rect x="8" y="20" width="2" height="2" fill="#B14863" />
<rect x="10" y="20" width="2" height="2" fill="#000000" />
<rect x="12" y="20" width="2" height="2" fill="#B14863" />
<rect x="14" y="20" width="2" height="2" fill="#B14863" />
<rect x="16" y="20" width="2" height="2" fill="#B14863" />
<rect x="18" y="20" width="2" height="2" fill="#000000" />
<rect x="20" y="20" width="2" height="2" fill="#000000" />
<rect x="22" y="20" width="2" height="2" fill="#B14863" />
<rect x="24" y="20" width="2" height="2" fill="#B14863" />
<rect x="26" y="20" width="2" height="2" fill="#B14863" />
<rect x="28" y="20" width="2" height="2" fill="#000000" />
<rect x="30" y="20" width="2" height="2" fill="#B14863" />
<rect x="32" y="20" width="2" height="2" fill="#000000" />
<rect x="34" y="20" width="2" height="2" fill="#8385CF" />
<rect x="36" y="20" width="2" height="2" fill="#000000" />
<rect x="38" y="20" width="2" height="2" fill="#8385CF" />
<rect x="40" y="20" width="2" height="2" fill="#8385CF" />
<rect x="42" y="20" width="2" height="2" fill="#000000" />
<rect x="44" y="20" width="2" height="2" fill="#8385CF" />
<rect x="46" y="20" width="2" height="2" fill="#000000" />
<rect x="58" y="20" width="2" height="2" fill="#000000" />
<rect x="62" y="20" width="2" height="2" fill="#000000" />
<rect x="70" y="20" width="2" height="2" fill="#000000" />
<rect x="74" y="20" width="2" height="2" fill="#000000" />
<rect x="82" y="20" width="2" height="2" fill="#000000" />
<rect x="94" y="20" width="2" height="2" fill="#000000" />
<rect x="102" y="20" width="2" height="2" fill="#000000" />
<rect x="116" y="20" width="2" height="2" fill="#000000" />
<rect x="136" y="20" width="2" height="2" fill="#000000" />
<rect x="150" y="20" width="2" height="2" fill="#000000" />
<rect x="156" y="20" width="2" height="2" fill="#000000" />
<rect x="170" y="20" width="2" height="2" fill="#000000" />
<rect x="176" y="20" width="2" height="2" fill="#000000" />
<rect x="190" y="20" width="2" height="2" fill="#000000" />
<rect x="206" y="20" width="2" height="2" fill="#000000" />
<rect x="208" y="20" width="2" height="2" fill="#000000" />
<rect x="212" y="20" width="2" height="2" fill="#000000" />
<rect x="6" y="22" width="2" height="2" fill="#000000" />
<rect x="8" y="22" width="2" height="2" fill="#B14863" />
<rect x="10" y="22" width="2" height="2" fill="#B14863" />
<rect x="12" y="22" width="2" height="2" fill="#B14863" />
<rect x="14" y="22" width="2" height="2" fill="#B14863" />
<rect x="16" y="22" width="2" height="2" fill="#000000" />
<rect x="22" y="22" width="2" height="2" fill="#000000" />
<rect x="24" y="22" width="2" height="2" fill="#B14863" />
<rect x="26" y="22" width="2" height="2" fill="#B14863" />
<rect x="28" y="22" width="2" height="2" fill="#B14863" />
<rect x="30" y="22" width="2" height="2" fill="#B14863" />
<rect x="32" y="22" width="2" height="2" fill="#000000" />
<rect x="34" y="22" width="2" height="2" fill="#8385CF" />
<rect x="36" y="22" width="2" height="2" fill="#000000" />
<rect x="38" y="22" width="2" height="2" fill="#8385CF" />
<rect x="40" y="22" width="2" height="2" fill="#8385CF" />
<rect x="42" y="22" width="2" height="2" fill="#000000" />
<rect x="44" y="22" width="2" height="2" fill="#8385CF" />
<rect x="46" y="22" width="2" height="2" fill="#000000" />
<rect x="58" y="22" width="2" height="2" fill="#000000" />
<rect x="62" y="22" width="2" height="2" fill="#000000" />
<rect x="70" y="22" width="2" height="2" fill="#000000" />
<rect x="74" y="22" width="2" height="2" fill="#000000" />
<rect x="82" y="22" width="2" height="2" fill="#000000" />
<rect x="94" y="22" width="2" height="2" fill="#000000" />
<rect x="102" y="22" width="2" height="2" fill="#000000" />
<rect x="116" y="22" width="2" height="2" fill="#000000" />
<rect x="136" y="22" width="2" height="2" fill="#000000" />
<rect x="150" y="22" width="2" height="2" fill="#000000" />
<rect x="156" y="22" width="2" height="2" fill="#000000" />
<rect x="170" y="22" width="2" height="2" fill="#000000" />
<rect x="176" y="22" width="2" height="2" fill="#000000" />
<rect x="190" y="22" width="2" height="2" fill="#000000" />
<rect x="208" y="22" width="2" height="2" fill="#000000" />
<rect x="212" y="22" width="2" height="2" fill="#000000" />
<rect x="6" y="24" width="2" height="2" fill="#000000" />
<rect x="8" y="24" width="2" height="2" fill="#B14863" />
<rect x="10" y="24" width="2" height="2" fill="#B14863" />
<rect x="12" y="24" width="2" height="2" fill="#B14863" />
<rect x="14" y="24" width="2" height="2" fill="#000000" />
<rect x="16" y="24" width="2" height="2" fill="#000000" />
<rect x="18" y="24" width="2" height="2" fill="#000000" />
<rect x="20" y="24" width="2" height="2" fill="#000000" />
<rect x="22" y="24" width="2" height="2" fill="#000000" />
<rect x="24" y="24" width="2" height="2" fill="#000000" />
<rect x="26" y="24" width="2" height="2" fill="#B14863" />
<rect x="28" y="24" width="2" height="2" fill="#B14863" />
<rect x="30" y="24" width="2" height="2" fill="#B14863" />
<rect x="32" y="24" width="2" height="2" fill="#000000" />
<rect x="34" y="24" width="2" height="2" fill="#8385CF" />
<rect x="36" y="24" width="2" height="2" fill="#8385CF" />
<rect x="38" y="24" width="2" height="2" fill="#000000" />
<rect x="40" y="24" width="2" height="2" fill="#000000" />
<rect x="42" y="24" width="2" height="2" fill="#8385CF" />
<rect x="44" y="24" width="2" height="2" fill="#8385CF" />
<rect x="46" y="24" width="2" height="2" fill="#000000" />
<rect x="60" y="24" width="2" height="2" fill="#000000" />
<rect x="72" y="24" width="2" height="2" fill="#000000" />
<rect x="82" y="24" width="2" height="2" fill="#000000" />
<rect x="84" y="24" width="2" height="2" fill="#000000" />
<rect x="92" y="24" width="2" height="2" fill="#000000" />
<rect x="94" y="24" width="2" height="2" fill="#000000" />
<rect x="102" y="24" width="2" height="2" fill="#000000" />
<rect x="118" y="24" width="2" height="2" fill="#000000" />
<rect x="128" y="24" width="2" height="2" fill="#000000" />
<rect x="136" y="24" width="2" height="2" fill="#000000" />
<rect x="150" y="24" width="2" height="2" fill="#000000" />
<rect x="158" y="24" width="2" height="2" fill="#000000" />
<rect x="168" y="24" width="2" height="2" fill="#000000" />
<rect x="178" y="24" width="2" height="2" fill="#000000" />
<rect x="188" y="24" width="2" height="2" fill="#000000" />
<rect x="190" y="24" width="2" height="2" fill="#000000" />
<rect x="196" y="24" width="2" height="2" fill="#000000" />
<rect x="208" y="24" width="2" height="2" fill="#000000" />
<rect x="214" y="24" width="2" height="2" fill="#000000" />
<rect x="224" y="24" width="2" height="2" fill="#000000" />
<rect x="6" y="26" width="2" height="2" fill="#000000" />
<rect x="8" y="26" width="2" height="2" fill="#B14863" />
<rect x="10" y="26" width="2" height="2" fill="#B14863" />
<rect x="12" y="26" width="2" height="2" fill="#B14863" />
<rect x="14" y="26" width="2" height="2" fill="#B14863" />
<rect x="16" y="26" width="2" height="2" fill="#B14863" />
<rect x="18" y="26" width="2" height="2" fill="#B14863" />
<rect x="20" y="26" width="2" height="2" fill="#B14863" />
<rect x="22" y="26" width="2" height="2" fill="#B14863" />
<rect x="24" y="26" width="2" height="2" fill="#B14863" />
<rect x="26" y="26" width="2" height="2" fill="#B14863" />
<rect x="28" y="26" width="2" height="2" fill="#B14863" />
<rect x="30" y="26" width="2" height="2" fill="#B14863" />
<rect x="32" y="26" width="2" height="2" fill="#000000" />
<rect x="34" y="26" width="2" height="2" fill="#8385CF" />
<rect x="36" y="26" width="2" height="2" fill="#8385CF" />
<rect x="38" y="26" width="2" height="2" fill="#8385CF" />
<rect x="40" y="26" width="2" height="2" fill="#8385CF" />
<rect x="42" y="26" width="2" height="2" fill="#8385CF" />
<rect x="44" y="26" width="2" height="2" fill="#8385CF" />
<rect x="46" y="26" width="2" height="2" fill="#000000" />
<rect x="60" y="26" width="2" height="2" fill="#000000" />
<rect x="72" y="26" width="2" height="2" fill="#000000" />
<rect x="84" y="26" width="2" height="2" fill="#000000" />
<rect x="86" y="26" width="2" height="2" fill="#000000" />
<rect x="88" y="26" width="2" height="2" fill="#000000" />
<rect x="90" y="26" width="2" height="2" fill="#000000" />
<rect x="94" y="26" width="2" height="2" fill="#000000" />
<rect x="102" y="26" width="2" height="2" fill="#000000" />
<rect x="120" y="26" width="2" height="2" fill="#000000" />
<rect x="122" y="26" width="2" height="2" fill="#000000" />
<rect x="124" y="26" width="2" height="2" fill="#000000" />
<rect x="126" y="26" width="2" height="2" fill="#000000" />
<rect x="136" y="26" width="2" height="2" fill="#000000" />
<rect x="150" y="26" width="2" height="2" fill="#000000" />
<rect x="160" y="26" width="2" height="2" fill="#000000" />
<rect x="162" y="26" width="2" height="2" fill="#000000" />
<rect x="164" y="26" width="2" height="2" fill="#000000" />
<rect x="166" y="26" width="2" height="2" fill="#000000" />
<rect x="180" y="26" width="2" height="2" fill="#000000" />
<rect x="182" y="26" width="2" height="2" fill="#000000" />
<rect x="184" y="26" width="2" height="2" fill="#000000" />
<rect x="186" y="26" width="2" height="2" fill="#000000" />
<rect x="190" y="26" width="2" height="2" fill="#000000" />
<rect x="198" y="26" width="2" height="2" fill="#000000" />
<rect x="200" y="26" width="2" height="2" fill="#000000" />
<rect x="202" y="26" width="2" height="2" fill="#000000" />
<rect x="204" y="26" width="2" height="2" fill="#000000" />
<rect x="206" y="26" width="2" height="2" fill="#000000" />
<rect x="216" y="26" width="2" height="2" fill="#000000" />
<rect x="218" y="26" width="2" height="2" fill="#000000" />
<rect x="220" y="26" width="2" height="2" fill="#000000" />
<rect x="222" y="26" width="2" height="2" fill="#000000" />
<rect x="6" y="28" width="2" height="2" fill="#000000" />
<rect x="8" y="28" width="2" height="2" fill="#000000" />
<rect x="10" y="28" width="2" height="2" fill="#000000" />
<rect x="12" y="28" width="2" height="2" fill="#000000" />
<rect x="14" y="28" width="2" height="2" fill="#000000" />
<rect x="16" y="28" width="2" height="2" fill="#000000" />
<rect x="18" y="28" width="2" height="2" fill="#000000" />
<rect x="20" y="28" width="2" height="2" fill="#000000" />
<rect x="22" y="28" width="2" height="2" fill="#000000" />
<rect x="24" y="28" width="2" height="2" fill="#000000" />
<rect x="26" y="28" width="2" height="2" fill="#000000" />
<rect x="28" y="28" width="2" height="2" fill="#000000" />
<rect x="30" y="28" width="2" height="2" fill="#000000" />
<rect x="32" y="28" width="2" height="2" fill="#000000" />
<rect x="34" y="28" width="2" height="2" fill="#000000" />
<rect x="36" y="28" width="2" height="2" fill="#000000" />
<rect x="38" y="28" width="2" height="2" fill="#000000" />
<rect x="40" y="28" width="2" height="2" fill="#000000" />
<rect x="42" y="28" width="2" height="2" fill="#000000" />
<rect x="44" y="28" width="2" height="2" fill="#000000" />
<rect x="46" y="28" width="2" height="2" fill="#000000" />
</svg>