<?xml version="1.0" encoding="UTF-8" ?>
<svg version="1.1" width="32" height="32" xmlns="http://www.w3.org/2000/svg">
<rect x="6" y="4" width="2" height="2" fill="#000000" />
<rect x="8" y="4" width="2" height="2" fill="#000000" />
<rect x="10" y="4" width="2" height="2" fill="#000000" />
<rect x="12" y="4" width="2" height="2" fill="#000000" />
<rect x="14" y="4" width="2" height="2" fill="#000000" />
<rect x="16" y="4" width="2" height="2" fill="#000000" />
<rect x="6" y="6" width="2" height="2" fill="#000000" />
<rect x="16" y="6" width="2" height="2" fill="#000000" />
<rect x="18" y="6" width="2" height="2" fill="#000000" />
<rect x="6" y="8" width="2" height="2" fill="#000000" />
<rect x="10" y="8" width="2" height="2" fill="#000000" />
<rect x="12" y="8" width="2" height="2" fill="#000000" />
<rect x="16" y="8" width="2" height="2" fill="#000000" />
<rect x="18" y="8" width="2" height="2" fill="#000000" />
<rect x="20" y="8" width="2" height="2" fill="#000000" />
<rect x="6" y="10" width="2" height="2" fill="#000000" />
<rect x="16" y="10" width="2" height="2" fill="#000000" />
<rect x="18" y="10" width="2" height="2" fill="#000000" />
<rect x="20" y="10" width="2" height="2" fill="#000000" />
<rect x="22" y="10" width="2" height="2" fill="#000000" />
<rect x="6" y="12" width="2" height="2" fill="#000000" />
<rect x="10" y="12" width="2" height="2" fill="#000000" />
<rect x="12" y="12" width="2" height="2" fill="#000000" />
<rect x="22" y="12" width="2" height="2" fill="#000000" />
<rect x="6" y="14" width="2" height="2" fill="#000000" />
<rect x="22" y="14" width="2" height="2" fill="#000000" />
<rect x="6" y="16" width="2" height="2" fill="#000000" />
<rect x="10" y="16" width="2" height="2" fill="#000000" />
<rect x="12" y="16" width="2" height="2" fill="#000000" />
<rect x="14" y="16" width="2" height="2" fill="#000000" />
<rect x="16" y="16" width="2" height="2" fill="#000000" />
<rect x="18" y="16" width="2" height="2" fill="#000000" />
<rect x="22" y="16" width="2" height="2" fill="#000000" />
<rect x="6" y="18" width="2" height="2" fill="#000000" />
<rect x="22" y="18" width="2" height="2" fill="#000000" />
<rect x="6" y="20" width="2" height="2" fill="#000000" />
<rect x="10" y="20" width="2" height="2" fill="#000000" />
<rect x="12" y="20" width="2" height="2" fill="#000000" />
<rect x="14" y="20" width="2" height="2" fill="#000000" />
<rect x="16" y="20" width="2" height="2" fill="#000000" />
<rect x="18" y="20" width="2" height="2" fill="#000000" />
<rect x="22" y="20" width="2" height="2" fill="#000000" />
<rect x="6" y="22" width="2" height="2" fill="#000000" />
<rect x="22" y="22" width="2" height="2" fill="#000000" />
<rect x="6" y="24" width="2" height="2" fill="#000000" />
<rect x="22" y="24" width="2" height="2" fill="#000000" />
<rect x="6" y="26" width="2" height="2" fill="#000000" />
<rect x="8" y="26" width="2" height="2" fill="#000000" />
<rect x="10" y="26" width="2" height="2" fill="#000000" />
<rect x="12" y="26" width="2" height="2" fill="#000000" />
<rect x="14" y="26" width="2" height="2" fill="#000000" />
<rect x="16" y="26" width="2" height="2" fill="#000000" />
<rect x="18" y="26" width="2" height="2" fill="#000000" />
<rect x="20" y="26" width="2" height="2" fill="#000000" />
<rect x="22" y="26" width="2" height="2" fill="#000000" />
</svg>