<?xml version="1.0" encoding="UTF-8" ?>
<svg version="1.1" width="32" height="32" xmlns="http://www.w3.org/2000/svg">
<rect x="4" y="4" width="2" height="2" fill="#323C39" />
<rect x="6" y="4" width="2" height="2" fill="#696A6A" />
<rect x="8" y="4" width="2" height="2" fill="#696A6A" />
<rect x="10" y="4" width="2" height="2" fill="#696A6A" />
<rect x="12" y="4" width="2" height="2" fill="#696A6A" />
<rect x="14" y="4" width="2" height="2" fill="#696A6A" />
<rect x="16" y="4" width="2" height="2" fill="#696A6A" />
<rect x="18" y="4" width="2" height="2" fill="#696A6A" />
<rect x="22" y="4" width="2" height="2" fill="#696A6A" />
<rect x="4" y="6" width="2" height="2" fill="#323C39" />
<rect x="6" y="6" width="2" height="2" fill="#696A6A" />
<rect x="8" y="6" width="2" height="2" fill="#696A6A" />
<rect x="10" y="6" width="2" height="2" fill="#696A6A" />
<rect x="12" y="6" width="2" height="2" fill="#696A6A" />
<rect x="14" y="6" width="2" height="2" fill="#696A6A" />
<rect x="16" y="6" width="2" height="2" fill="#696A6A" />
<rect x="22" y="6" width="2" height="2" fill="#696A6A" />
<rect x="10" y="8" width="2" height="2" fill="#663931" />
<rect x="12" y="8" width="2" height="2" fill="#8F563B" />
<rect x="22" y="8" width="2" height="2" fill="#696A6A" />
<rect x="10" y="10" width="2" height="2" fill="#663931" />
<rect x="12" y="10" width="2" height="2" fill="#8F563B" />
<rect x="22" y="10" width="2" height="2" fill="#696A6A" />
<rect x="10" y="12" width="2" height="2" fill="#663931" />
<rect x="12" y="12" width="2" height="2" fill="#8F563B" />
<rect x="22" y="12" width="2" height="2" fill="#696A6A" />
<rect x="10" y="14" width="2" height="2" fill="#663931" />
<rect x="12" y="14" width="2" height="2" fill="#8F563B" />
<rect x="20" y="14" width="2" height="2" fill="#45283C" />
<rect x="22" y="14" width="2" height="2" fill="#663931" />
<rect x="24" y="14" width="2" height="2" fill="#8F563B" />
<rect x="10" y="16" width="2" height="2" fill="#663931" />
<rect x="12" y="16" width="2" height="2" fill="#8F563B" />
<rect x="20" y="16" width="2" height="2" fill="#45283C" />
<rect x="22" y="16" width="2" height="2" fill="#663931" />
<rect x="24" y="16" width="2" height="2" fill="#8F563B" />
<rect x="10" y="18" width="2" height="2" fill="#663931" />
<rect x="12" y="18" width="2" height="2" fill="#8F563B" />
<rect x="20" y="18" width="2" height="2" fill="#45283C" />
<rect x="22" y="18" width="2" height="2" fill="#663931" />
<rect x="24" y="18" width="2" height="2" fill="#8F563B" />
<rect x="10" y="20" width="2" height="2" fill="#663931" />
<rect x="12" y="20" width="2" height="2" fill="#8F563B" />
<rect x="20" y="20" width="2" height="2" fill="#45283C" />
<rect x="22" y="20" width="2" height="2" fill="#663931" />
<rect x="24" y="20" width="2" height="2" fill="#8F563B" />
<rect x="10" y="22" width="2" height="2" fill="#663931" />
<rect x="12" y="22" width="2" height="2" fill="#8F563B" />
<rect x="20" y="22" width="2" height="2" fill="#45283C" />
<rect x="22" y="22" width="2" height="2" fill="#663931" />
<rect x="24" y="22" width="2" height="2" fill="#8F563B" />
<rect x="10" y="24" width="2" height="2" fill="#663931" />
<rect x="12" y="24" width="2" height="2" fill="#8F563B" />
<rect x="20" y="24" width="2" height="2" fill="#45283C" />
<rect x="22" y="24" width="2" height="2" fill="#663931" />
<rect x="24" y="24" width="2" height="2" fill="#8F563B" />
<rect x="10" y="26" width="2" height="2" fill="#663931" />
<rect x="12" y="26" width="2" height="2" fill="#8F563B" />
<rect x="20" y="26" width="2" height="2" fill="#45283C" />
<rect x="22" y="26" width="2" height="2" fill="#663931" />
<rect x="24" y="26" width="2" height="2" fill="#8F563B" />
</svg>