<?xml version="1.0" encoding="UTF-8" ?>
<svg version="1.1" width="32" height="32" xmlns="http://www.w3.org/2000/svg">
<rect x="10" y="2" width="2" height="2" fill="#223150" opacity="0.372549" />
<rect x="12" y="2" width="2" height="2" fill="#000000" />
<rect x="14" y="2" width="2" height="2" fill="#000000" />
<rect x="16" y="2" width="2" height="2" fill="#000000" />
<rect x="18" y="2" width="2" height="2" fill="#213355" opacity="0.333333" />
<rect x="8" y="4" width="2" height="2" fill="#272A43" opacity="0.368627" />
<rect x="10" y="4" width="2" height="2" fill="#000000" />
<rect x="12" y="4" width="2" height="2" fill="#639BFF" />
<rect x="14" y="4" width="2" height="2" fill="#639BFF" />
<rect x="16" y="4" width="2" height="2" fill="#639BFF" />
<rect x="18" y="4" width="2" height="2" fill="#000000" />
<rect x="20" y="4" width="2" height="2" fill="#213355" opacity="0.368627" />
<rect x="6" y="6" width="2" height="2" fill="#391010" opacity="0.333333" />
<rect x="8" y="6" width="2" height="2" fill="#000000" />
<rect x="10" y="6" width="2" height="2" fill="#639BFF" />
<rect x="12" y="6" width="2" height="2" fill="#896471" />
<rect x="14" y="6" width="2" height="2" fill="#FBF236" />
<rect x="16" y="6" width="2" height="2" fill="#8F8278" />
<rect x="18" y="6" width="2" height="2" fill="#639BFF" />
<rect x="20" y="6" width="2" height="2" fill="#000000" />
<rect x="22" y="6" width="2" height="2" fill="#213355" opacity="0.372549" />
<rect x="6" y="8" width="2" height="2" fill="#000000" />
<rect x="8" y="8" width="2" height="2" fill="#AC3232" />
<rect x="10" y="8" width="2" height="2" fill="#8D634F" />
<rect x="12" y="8" width="2" height="2" fill="#B58C57" />
<rect x="14" y="8" width="2" height="2" fill="#B87443" />
<rect x="16" y="8" width="2" height="2" fill="#FBF236" />
<rect x="18" y="8" width="2" height="2" fill="#927A71" />
<rect x="20" y="8" width="2" height="2" fill="#639BFF" />
<rect x="22" y="8" width="2" height="2" fill="#000000" />
<rect x="6" y="10" width="2" height="2" fill="#000000" />
<rect x="8" y="10" width="2" height="2" fill="#6A4B3D" />
<rect x="10" y="10" width="2" height="2" fill="#FBF236" />
<rect x="12" y="10" width="2" height="2" fill="#C27E3B" />
<rect x="14" y="10" width="2" height="2" fill="#C98237" />
<rect x="16" y="10" width="2" height="2" fill="#C08242" />
<rect x="18" y="10" width="2" height="2" fill="#FBF236" />
<rect x="20" y="10" width="2" height="2" fill="#639BFF" />
<rect x="22" y="10" width="2" height="2" fill="#000000" />
<rect x="6" y="12" width="2" height="2" fill="#000000" />
<rect x="8" y="12" width="2" height="2" fill="#639BFF" />
<rect x="10" y="12" width="2" height="2" fill="#93705B" />
<rect x="12" y="12" width="2" height="2" fill="#FBF236" />
<rect x="14" y="12" width="2" height="2" fill="#C59444" />
<rect x="16" y="12" width="2" height="2" fill="#FBF236" />
<rect x="18" y="12" width="2" height="2" fill="#8F8278" />
<rect x="20" y="12" width="2" height="2" fill="#639BFF" />
<rect x="22" y="12" width="2" height="2" fill="#000000" />
<rect x="6" y="14" width="2" height="2" fill="#213355" opacity="0.372549" />
<rect x="8" y="14" width="2" height="2" fill="#000000" />
<rect x="10" y="14" width="2" height="2" fill="#639BFF" />
<rect x="12" y="14" width="2" height="2" fill="#8F8176" />
<rect x="14" y="14" width="2" height="2" fill="#FBF236" />
<rect x="16" y="14" width="2" height="2" fill="#927A71" />
<rect x="18" y="14" width="2" height="2" fill="#639BFF" />
<rect x="20" y="14" width="2" height="2" fill="#000000" />
<rect x="22" y="14" width="2" height="2" fill="#213355" opacity="0.372549" />
<rect x="8" y="16" width="2" height="2" fill="#213355" opacity="0.368627" />
<rect x="10" y="16" width="2" height="2" fill="#000000" />
<rect x="12" y="16" width="2" height="2" fill="#639BFF" />
<rect x="14" y="16" width="2" height="2" fill="#639BFF" />
<rect x="16" y="16" width="2" height="2" fill="#639BFF" />
<rect x="18" y="16" width="2" height="2" fill="#000000" />
<rect x="20" y="16" width="2" height="2" fill="#213355" opacity="0.368627" />
<rect x="10" y="18" width="2" height="2" fill="#213355" opacity="0.333333" />
<rect x="12" y="18" width="2" height="2" fill="#000000" />
<rect x="14" y="18" width="2" height="2" fill="#000000" />
<rect x="16" y="18" width="2" height="2" fill="#000000" />
<rect x="18" y="18" width="2" height="2" fill="#213355" opacity="0.333333" />
<rect x="14" y="20" width="2" height="2" fill="#000000" />
<rect x="14" y="22" width="2" height="2" fill="#000000" />
<rect x="14" y="24" width="2" height="2" fill="#000000" />
<rect x="14" y="26" width="2" height="2" fill="#000000" />
<rect x="14" y="28" width="2" height="2" fill="#000000" />
</svg>