<?xml version="1.0" encoding="UTF-8" ?>
<svg version="1.1" width="32" height="32" xmlns="http://www.w3.org/2000/svg">
<rect x="6" y="2" width="2" height="2" fill="#000000" />
<rect x="18" y="2" width="2" height="2" fill="#000000" />
<rect x="26" y="2" width="2" height="2" fill="#000000" />
<rect x="6" y="4" width="2" height="2" fill="#000000" />
<rect x="20" y="4" width="2" height="2" fill="#000000" />
<rect x="24" y="4" width="2" height="2" fill="#000000" />
<rect x="4" y="6" width="2" height="2" fill="#000000" />
<rect x="6" y="6" width="2" height="2" fill="#000000" />
<rect x="8" y="6" width="2" height="2" fill="#000000" />
<rect x="18" y="6" width="2" height="2" fill="#000000" />
<rect x="20" y="6" width="2" height="2" fill="#000000" />
<rect x="22" y="6" width="2" height="2" fill="#000000" />
<rect x="24" y="6" width="2" height="2" fill="#000000" />
<rect x="2" y="8" width="2" height="2" fill="#000000" />
<rect x="4" y="8" width="2" height="2" fill="#CB6520" />
<rect x="6" y="8" width="2" height="2" fill="#DF7126" />
<rect x="8" y="8" width="2" height="2" fill="#EA8B4A" />
<rect x="10" y="8" width="2" height="2" fill="#000000" />
<rect x="16" y="8" width="2" height="2" fill="#000000" />
<rect x="18" y="8" width="2" height="2" fill="#922626" />
<rect x="20" y="8" width="2" height="2" fill="#000000" />
<rect x="22" y="8" width="2" height="2" fill="#000000" />
<rect x="24" y="8" width="2" height="2" fill="#AC3232" />
<rect x="26" y="8" width="2" height="2" fill="#000000" />
<rect x="2" y="10" width="2" height="2" fill="#000000" />
<rect x="4" y="10" width="2" height="2" fill="#CB6520" />
<rect x="6" y="10" width="2" height="2" fill="#DF7126" />
<rect x="8" y="10" width="2" height="2" fill="#EA8B4A" />
<rect x="10" y="10" width="2" height="2" fill="#000000" />
<rect x="14" y="10" width="2" height="2" fill="#000000" />
<rect x="16" y="10" width="2" height="2" fill="#922626" />
<rect x="18" y="10" width="2" height="2" fill="#AC3232" />
<rect x="20" y="10" width="2" height="2" fill="#AC3232" />
<rect x="22" y="10" width="2" height="2" fill="#AC3232" />
<rect x="24" y="10" width="2" height="2" fill="#AC3232" />
<rect x="26" y="10" width="2" height="2" fill="#CB5D5D" />
<rect x="28" y="10" width="2" height="2" fill="#000000" />
<rect x="2" y="12" width="2" height="2" fill="#000000" />
<rect x="4" y="12" width="2" height="2" fill="#CB6520" />
<rect x="6" y="12" width="2" height="2" fill="#DF7126" />
<rect x="8" y="12" width="2" height="2" fill="#EA8B4A" />
<rect x="10" y="12" width="2" height="2" fill="#000000" />
<rect x="14" y="12" width="2" height="2" fill="#000000" />
<rect x="16" y="12" width="2" height="2" fill="#922626" />
<rect x="18" y="12" width="2" height="2" fill="#AC3232" />
<rect x="20" y="12" width="2" height="2" fill="#AC3232" />
<rect x="22" y="12" width="2" height="2" fill="#AC3232" />
<rect x="24" y="12" width="2" height="2" fill="#AC3232" />
<rect x="26" y="12" width="2" height="2" fill="#CB5D5D" />
<rect x="28" y="12" width="2" height="2" fill="#000000" />
<rect x="2" y="14" width="2" height="2" fill="#000000" />
<rect x="4" y="14" width="2" height="2" fill="#CB6520" />
<rect x="6" y="14" width="2" height="2" fill="#DF7126" />
<rect x="8" y="14" width="2" height="2" fill="#EA8B4A" />
<rect x="10" y="14" width="2" height="2" fill="#000000" />
<rect x="14" y="14" width="2" height="2" fill="#000000" />
<rect x="16" y="14" width="2" height="2" fill="#922626" />
<rect x="18" y="14" width="2" height="2" fill="#AC3232" />
<rect x="20" y="14" width="2" height="2" fill="#AC3232" />
<rect x="22" y="14" width="2" height="2" fill="#AC3232" />
<rect x="24" y="14" width="2" height="2" fill="#AC3232" />
<rect x="26" y="14" width="2" height="2" fill="#CB5D5D" />
<rect x="28" y="14" width="2" height="2" fill="#000000" />
<rect x="2" y="16" width="2" height="2" fill="#000000" />
<rect x="4" y="16" width="2" height="2" fill="#CB6520" />
<rect x="6" y="16" width="2" height="2" fill="#DF7126" />
<rect x="8" y="16" width="2" height="2" fill="#EA8B4A" />
<rect x="10" y="16" width="2" height="2" fill="#000000" />
<rect x="14" y="16" width="2" height="2" fill="#000000" />
<rect x="16" y="16" width="2" height="2" fill="#922626" />
<rect x="18" y="16" width="2" height="2" fill="#AC3232" />
<rect x="20" y="16" width="2" height="2" fill="#AC3232" />
<rect x="22" y="16" width="2" height="2" fill="#AC3232" />
<rect x="24" y="16" width="2" height="2" fill="#AC3232" />
<rect x="26" y="16" width="2" height="2" fill="#CB5D5D" />
<rect x="28" y="16" width="2" height="2" fill="#000000" />
<rect x="2" y="18" width="2" height="2" fill="#000000" />
<rect x="4" y="18" width="2" height="2" fill="#CB6520" />
<rect x="6" y="18" width="2" height="2" fill="#DF7126" />
<rect x="8" y="18" width="2" height="2" fill="#EA8B4A" />
<rect x="10" y="18" width="2" height="2" fill="#000000" />
<rect x="16" y="18" width="2" height="2" fill="#000000" />
<rect x="18" y="18" width="2" height="2" fill="#922626" />
<rect x="20" y="18" width="2" height="2" fill="#AC3232" />
<rect x="22" y="18" width="2" height="2" fill="#AC3232" />
<rect x="24" y="18" width="2" height="2" fill="#CB5D5D" />
<rect x="26" y="18" width="2" height="2" fill="#000000" />
<rect x="2" y="20" width="2" height="2" fill="#000000" />
<rect x="4" y="20" width="2" height="2" fill="#CB6520" />
<rect x="6" y="20" width="2" height="2" fill="#DF7126" />
<rect x="8" y="20" width="2" height="2" fill="#EA8B4A" />
<rect x="10" y="20" width="2" height="2" fill="#000000" />
<rect x="18" y="20" width="2" height="2" fill="#000000" />
<rect x="20" y="20" width="2" height="2" fill="#000000" />
<rect x="22" y="20" width="2" height="2" fill="#000000" />
<rect x="24" y="20" width="2" height="2" fill="#000000" />
<rect x="4" y="22" width="2" height="2" fill="#000000" />
<rect x="6" y="22" width="2" height="2" fill="#EA8B4A" />
<rect x="8" y="22" width="2" height="2" fill="#000000" />
<rect x="4" y="24" width="2" height="2" fill="#000000" />
<rect x="6" y="24" width="2" height="2" fill="#EA8B4A" />
<rect x="8" y="24" width="2" height="2" fill="#000000" />
<rect x="6" y="26" width="2" height="2" fill="#000000" />
</svg>