<?xml version="1.0" encoding="UTF-8" ?>
<svg version="1.1" width="32" height="32" xmlns="http://www.w3.org/2000/svg">
<rect x="14" y="2" width="2" height="2" fill="#000000" />
<rect x="12" y="4" width="2" height="2" fill="#000000" />
<rect x="14" y="4" width="2" height="2" fill="#EEC39A" />
<rect x="16" y="4" width="2" height="2" fill="#000000" />
<rect x="10" y="6" width="2" height="2" fill="#000000" />
<rect x="12" y="6" width="2" height="2" fill="#EEC39A" />
<rect x="14" y="6" width="2" height="2" fill="#EEC39A" />
<rect x="16" y="6" width="2" height="2" fill="#725746" opacity="0.886275" />
<rect x="18" y="6" width="2" height="2" fill="#000000" />
<rect x="10" y="8" width="2" height="2" fill="#000000" />
<rect x="12" y="8" width="2" height="2" fill="#663931" />
<rect x="14" y="8" width="2" height="2" fill="#EEC39A" />
<rect x="16" y="8" width="2" height="2" fill="#663931" />
<rect x="18" y="8" width="2" height="2" fill="#000000" />
<rect x="10" y="10" width="2" height="2" fill="#000000" />
<rect x="12" y="10" width="2" height="2" fill="#80634F" />
<rect x="14" y="10" width="2" height="2" fill="#EEC39A" />
<rect x="16" y="10" width="2" height="2" fill="#EEC39A" />
<rect x="18" y="10" width="2" height="2" fill="#000000" />
<rect x="10" y="12" width="2" height="2" fill="#000000" />
<rect x="12" y="12" width="2" height="2" fill="#EEC39A" />
<rect x="14" y="12" width="2" height="2" fill="#EEC39A" />
<rect x="16" y="12" width="2" height="2" fill="#663931" />
<rect x="18" y="12" width="2" height="2" fill="#000000" />
<rect x="10" y="14" width="2" height="2" fill="#000000" />
<rect x="12" y="14" width="2" height="2" fill="#663931" />
<rect x="14" y="14" width="2" height="2" fill="#EEC39A" />
<rect x="16" y="14" width="2" height="2" fill="#80634F" />
<rect x="18" y="14" width="2" height="2" fill="#000000" />
<rect x="10" y="16" width="2" height="2" fill="#000000" />
<rect x="12" y="16" width="2" height="2" fill="#663931" />
<rect x="14" y="16" width="2" height="2" fill="#EEC39A" />
<rect x="16" y="16" width="2" height="2" fill="#EEC39A" />
<rect x="18" y="16" width="2" height="2" fill="#000000" />
<rect x="10" y="18" width="2" height="2" fill="#000000" />
<rect x="12" y="18" width="2" height="2" fill="#725746" opacity="0.886275" />
<rect x="14" y="18" width="2" height="2" fill="#EEC39A" />
<rect x="16" y="18" width="2" height="2" fill="#663931" />
<rect x="18" y="18" width="2" height="2" fill="#000000" />
<rect x="12" y="20" width="2" height="2" fill="#000000" />
<rect x="14" y="20" width="2" height="2" fill="#EEC39A" />
<rect x="16" y="20" width="2" height="2" fill="#000000" />
<rect x="8" y="22" width="2" height="2" fill="#663931" />
<rect x="14" y="22" width="2" height="2" fill="#000000" />
<rect x="20" y="22" width="2" height="2" fill="#663931" />
<rect x="10" y="24" width="2" height="2" fill="#663931" />
<rect x="14" y="24" width="2" height="2" fill="#000000" />
<rect x="18" y="24" width="2" height="2" fill="#663931" />
<rect x="12" y="26" width="2" height="2" fill="#663931" />
<rect x="14" y="26" width="2" height="2" fill="#000000" />
<rect x="16" y="26" width="2" height="2" fill="#663931" />
<rect x="14" y="28" width="2" height="2" fill="#000000" />
</svg>