<?xml version="1.0" encoding="UTF-8" ?>
<svg version="1.1" width="32" height="32" xmlns="http://www.w3.org/2000/svg">
<rect x="8" y="2" width="2" height="2" fill="#000000" />
<rect x="10" y="2" width="2" height="2" fill="#000000" />
<rect x="12" y="2" width="2" height="2" fill="#000000" />
<rect x="14" y="2" width="2" height="2" fill="#000000" />
<rect x="16" y="2" width="2" height="2" fill="#000000" />
<rect x="18" y="2" width="2" height="2" fill="#000000" />
<rect x="20" y="2" width="2" height="2" fill="#000000" />
<rect x="6" y="4" width="2" height="2" fill="#000000" />
<rect x="8" y="4" width="2" height="2" fill="#000000" />
<rect x="10" y="4" width="2" height="2" fill="#000000" />
<rect x="12" y="4" width="2" height="2" fill="#000000" />
<rect x="14" y="4" width="2" height="2" fill="#0C0B13" />
<rect x="16" y="4" width="2" height="2" fill="#17121E" />
<rect x="18" y="4" width="2" height="2" fill="#221622" />
<rect x="20" y="4" width="2" height="2" fill="#1D131B" opacity="0.886275" />
<rect x="22" y="4" width="2" height="2" fill="#000000" />
<rect x="6" y="6" width="2" height="2" fill="#000000" />
<rect x="8" y="6" width="2" height="2" fill="#000000" />
<rect x="10" y="6" width="2" height="2" fill="#000000" />
<rect x="12" y="6" width="2" height="2" fill="#0C0B13" />
<rect x="14" y="6" width="2" height="2" fill="#1C1726" />
<rect x="16" y="6" width="2" height="2" fill="#2A1D2E" />
<rect x="18" y="6" width="2" height="2" fill="#423243" />
<rect x="20" y="6" width="2" height="2" fill="#322B34" opacity="0.984314" />
<rect x="22" y="6" width="2" height="2" fill="#000000" />
<rect x="6" y="8" width="2" height="2" fill="#000000" />
<rect x="8" y="8" width="2" height="2" fill="#000000" />
<rect x="10" y="8" width="2" height="2" fill="#0A090F" />
<rect x="12" y="8" width="2" height="2" fill="#1C1725" />
<rect x="14" y="8" width="2" height="2" fill="#2B1F30" />
<rect x="16" y="8" width="2" height="2" fill="#423446" />
<rect x="18" y="8" width="2" height="2" fill="#4F4855" opacity="0.996078" />
<rect x="20" y="8" width="2" height="2" fill="#4B4A53" />
<rect x="22" y="8" width="2" height="2" fill="#000000" />
<rect x="6" y="10" width="2" height="2" fill="#000000" />
<rect x="8" y="10" width="2" height="2" fill="#000000" />
<rect x="10" y="10" width="2" height="2" fill="#191420" />
<rect x="12" y="10" width="2" height="2" fill="#2A1E2F" />
<rect x="14" y="10" width="2" height="2" fill="#423445" />
<rect x="16" y="10" width="2" height="2" fill="#615A69" />
<rect x="18" y="10" width="2" height="2" fill="#6D6A75" opacity="0.996078" />
<rect x="20" y="10" width="2" height="2" fill="#4B4B51" opacity="0.996078" />
<rect x="22" y="10" width="2" height="2" fill="#000000" />
<rect x="6" y="12" width="2" height="2" fill="#000000" />
<rect x="8" y="12" width="2" height="2" fill="#16121D" />
<rect x="10" y="12" width="2" height="2" fill="#271B2A" />
<rect x="12" y="12" width="2" height="2" fill="#413344" />
<rect x="14" y="12" width="2" height="2" fill="#615969" />
<rect x="16" y="12" width="2" height="2" fill="#807D89" opacity="0.996078" />
<rect x="18" y="12" width="2" height="2" fill="#8A8B92" opacity="0.996078" />
<rect x="20" y="12" width="2" height="2" fill="#5D5E62" opacity="0.996078" />
<rect x="22" y="12" width="2" height="2" fill="#000000" />
<rect x="6" y="14" width="2" height="2" fill="#000000" />
<rect x="8" y="14" width="2" height="2" fill="#211622" />
<rect x="10" y="14" width="2" height="2" fill="#3F3141" />
<rect x="12" y="14" width="2" height="2" fill="#635D6B" opacity="0.996078" />
<rect x="14" y="14" width="2" height="2" fill="#878590" opacity="0.996078" />
<rect x="16" y="14" width="2" height="2" fill="#9EA0A8" opacity="0.996078" />
<rect x="18" y="14" width="2" height="2" fill="#A0A2A7" opacity="0.996078" />
<rect x="20" y="14" width="2" height="2" fill="#67696B" opacity="0.996078" />
<rect x="22" y="14" width="2" height="2" fill="#000000" />
<rect x="6" y="16" width="2" height="2" fill="#000000" />
<rect x="8" y="16" width="2" height="2" fill="#332834" />
<rect x="10" y="16" width="2" height="2" fill="#5C5563" />
<rect x="12" y="16" width="2" height="2" fill="#84838E" opacity="0.996078" />
<rect x="14" y="16" width="2" height="2" fill="#A4A6AE" opacity="0.996078" />
<rect x="16" y="16" width="2" height="2" fill="#B5B7BC" opacity="0.996078" />
<rect x="18" y="16" width="2" height="2" fill="#A9ABAE" opacity="0.996078" />
<rect x="20" y="16" width="2" height="2" fill="#6A6B6B" opacity="0.996078" />
<rect x="22" y="16" width="2" height="2" fill="#000000" />
<rect x="6" y="18" width="2" height="2" fill="#000000" />
<rect x="8" y="18" width="2" height="2" fill="#4A4751" />
<rect x="10" y="18" width="2" height="2" fill="#7C7C85" opacity="0.996078" />
<rect x="12" y="18" width="2" height="2" fill="#A1A4AB" opacity="0.996078" />
<rect x="14" y="18" width="2" height="2" fill="#B6B9BD" opacity="0.996078" />
<rect x="16" y="18" width="2" height="2" fill="#B8BBBD" opacity="0.996078" />
<rect x="18" y="18" width="2" height="2" fill="#9FA0A2" opacity="0.996078" />
<rect x="20" y="18" width="2" height="2" fill="#5F6060" opacity="0.996078" />
<rect x="22" y="18" width="2" height="2" fill="#000000" />
<rect x="6" y="20" width="2" height="2" fill="#000000" />
<rect x="8" y="20" width="2" height="2" fill="#686D74" />
<rect x="10" y="20" width="2" height="2" fill="#92969C" opacity="0.996078" />
<rect x="12" y="20" width="2" height="2" fill="#AEB1B6" opacity="0.996078" />
<rect x="14" y="20" width="2" height="2" fill="#B4B6B8" opacity="0.996078" />
<rect x="16" y="20" width="2" height="2" fill="#ABADAE" opacity="0.996078" />
<rect x="18" y="20" width="2" height="2" fill="#8B8C8C" opacity="0.996078" />
<rect x="20" y="20" width="2" height="2" fill="#555656" opacity="0.996078" />
<rect x="22" y="20" width="2" height="2" fill="#000000" />
<rect x="6" y="22" width="2" height="2" fill="#000000" />
<rect x="8" y="22" width="2" height="2" fill="#888E92" />
<rect x="10" y="22" width="2" height="2" fill="#9EA2A5" opacity="0.996078" />
<rect x="12" y="22" width="2" height="2" fill="#9B9D9F" opacity="0.992157" />
<rect x="14" y="22" width="2" height="2" fill="#ADAEAE" opacity="0.996078" />
<rect x="16" y="22" width="2" height="2" fill="#909191" opacity="0.996078" />
<rect x="18" y="22" width="2" height="2" fill="#777878" opacity="0.996078" />
<rect x="20" y="22" width="2" height="2" fill="#4C4D4D" opacity="0.996078" />
<rect x="22" y="22" width="2" height="2" fill="#000000" />
<rect x="6" y="24" width="2" height="2" fill="#000000" />
<rect x="8" y="24" width="2" height="2" fill="#9EA0A2" />
<rect x="10" y="24" width="2" height="2" fill="#86888A" opacity="0.976471" />
<rect x="12" y="24" width="2" height="2" fill="#A7A8A8" opacity="0.996078" />
<rect x="14" y="24" width="2" height="2" fill="#000000" />
<rect x="16" y="24" width="2" height="2" fill="#6E6F6F" opacity="0.996078" />
<rect x="18" y="24" width="2" height="2" fill="#696A6A" opacity="0.996078" />
<rect x="20" y="24" width="2" height="2" fill="#434343" opacity="0.996078" />
<rect x="22" y="24" width="2" height="2" fill="#000000" />
<rect x="6" y="26" width="2" height="2" fill="#000000" />
<rect x="8" y="26" width="2" height="2" fill="#434344" opacity="0.870588" />
<rect x="10" y="26" width="2" height="2" fill="#606061" opacity="0.980392" />
<rect x="12" y="26" width="2" height="2" fill="#585858" opacity="0.996078" />
<rect x="14" y="26" width="2" height="2" fill="#3F3F3F" opacity="0.996078" />
<rect x="16" y="26" width="2" height="2" fill="#434444" opacity="0.996078" />
<rect x="18" y="26" width="2" height="2" fill="#424343" opacity="0.996078" />
<rect x="20" y="26" width="2" height="2" fill="#2F3030" opacity="0.886275" />
<rect x="22" y="26" width="2" height="2" fill="#000000" />
<rect x="8" y="28" width="2" height="2" fill="#000000" />
<rect x="10" y="28" width="2" height="2" fill="#000000" />
<rect x="12" y="28" width="2" height="2" fill="#000000" />
<rect x="14" y="28" width="2" height="2" fill="#000000" />
<rect x="16" y="28" width="2" height="2" fill="#000000" />
<rect x="18" y="28" width="2" height="2" fill="#000000" />
<rect x="20" y="28" width="2" height="2" fill="#000000" />
</svg>