<?xml version="1.0" encoding="UTF-8" ?>
<svg version="1.1" width="32" height="32" xmlns="http://www.w3.org/2000/svg">
<rect x="4" y="2" width="2" height="2" fill="#663931" />
<rect x="14" y="2" width="2" height="2" fill="#663931" />
<rect x="22" y="2" width="2" height="2" fill="#663931" />
<rect x="6" y="4" width="2" height="2" fill="#663931" />
<rect x="16" y="4" width="2" height="2" fill="#EEC39A" />
<rect x="28" y="4" width="2" height="2" fill="#EEC39A" />
<rect x="4" y="6" width="2" height="2" fill="#EEC39A" />
<rect x="6" y="6" width="2" height="2" fill="#663931" />
<rect x="8" y="6" width="2" height="2" fill="#EEC39A" />
<rect x="12" y="6" width="2" height="2" fill="#EEC39A" />
<rect x="6" y="8" width="2" height="2" fill="#EEC39A" />
<rect x="16" y="8" width="2" height="2" fill="#EEC39A" />
<rect x="18" y="8" width="2" height="2" fill="#663931" />
<rect x="20" y="8" width="2" height="2" fill="#663931" />
<rect x="8" y="10" width="2" height="2" fill="#663931" />
<rect x="12" y="10" width="2" height="2" fill="#EEC39A" />
<rect x="14" y="10" width="2" height="2" fill="#EEC39A" />
<rect x="16" y="10" width="2" height="2" fill="#663931" />
<rect x="18" y="10" width="2" height="2" fill="#663931" />
<rect x="20" y="10" width="2" height="2" fill="#663931" />
<rect x="22" y="10" width="2" height="2" fill="#EEC39A" />
<rect x="28" y="10" width="2" height="2" fill="#663931" />
<rect x="6" y="12" width="2" height="2" fill="#EEC39A" />
<rect x="8" y="12" width="2" height="2" fill="#EEC39A" />
<rect x="10" y="12" width="2" height="2" fill="#EEC39A" />
<rect x="14" y="12" width="2" height="2" fill="#EEC39A" />
<rect x="16" y="12" width="2" height="2" fill="#663931" />
<rect x="18" y="12" width="2" height="2" fill="#EEC39A" />
<rect x="2" y="14" width="2" height="2" fill="#663931" />
<rect x="10" y="14" width="2" height="2" fill="#EEC39A" />
<rect x="14" y="14" width="2" height="2" fill="#EEC39A" />
<rect x="6" y="16" width="2" height="2" fill="#EEC39A" />
<rect x="8" y="16" width="2" height="2" fill="#EEC39A" />
<rect x="10" y="16" width="2" height="2" fill="#663931" />
<rect x="20" y="16" width="2" height="2" fill="#663931" />
<rect x="2" y="18" width="2" height="2" fill="#663931" />
<rect x="4" y="18" width="2" height="2" fill="#EEC39A" />
<rect x="10" y="18" width="2" height="2" fill="#663931" />
<rect x="12" y="18" width="2" height="2" fill="#EEC39A" />
<rect x="14" y="18" width="2" height="2" fill="#663931" />
<rect x="6" y="20" width="2" height="2" fill="#663931" />
<rect x="10" y="20" width="2" height="2" fill="#EEC39A" />
<rect x="18" y="20" width="2" height="2" fill="#D9A066" />
<rect x="20" y="20" width="2" height="2" fill="#663931" />
<rect x="22" y="20" width="2" height="2" fill="#EEC39A" />
<rect x="24" y="20" width="2" height="2" fill="#D9A066" />
<rect x="28" y="20" width="2" height="2" fill="#663931" />
<rect x="10" y="22" width="2" height="2" fill="#663931" />
<rect x="16" y="22" width="2" height="2" fill="#D9A066" />
<rect x="18" y="22" width="2" height="2" fill="#663931" />
<rect x="20" y="22" width="2" height="2" fill="#663931" />
<rect x="22" y="22" width="2" height="2" fill="#663931" />
<rect x="16" y="24" width="2" height="2" fill="#EEC39A" />
<rect x="18" y="24" width="2" height="2" fill="#663931" />
<rect x="20" y="24" width="2" height="2" fill="#D9A066" />
<rect x="16" y="26" width="2" height="2" fill="#EEC39A" />
</svg>